<?xml version="1.0" encoding="utf-8"?>
<!-- Generator: Adobe Illustrator 23.0.1, SVG Export Plug-In . SVG Version: 6.00 Build 0)  -->
<svg version="1.1" xmlns="http://www.w3.org/2000/svg" xmlns:xlink="http://www.w3.org/1999/xlink" x="0px" y="0px"
	 viewBox="0 0 960 960" style="enable-background:new 0 0 960 960;" xml:space="preserve">
<style type="text/css">
	.st0{fill:#FF4CE6;}
	.st1{fill:#FFFFFF;}
	.st2{fill:#1CFF38;}
</style>
<g id="Layer_2">
	<rect width="960" height="960"/>
</g>
<g id="Layer_4">
	<g>
		<path class="st0" d="M52.7,729.05l-2.47,3.14c-1.12-1.11-2.71-1.96-4.74-1.96c-3.89,0-6.63,2.81-6.63,7.21
			c0,4.4,2.84,7.28,6.6,7.28c2.13,0,3.79-0.98,4.87-2.24l2.54,3.11c-1.83,1.93-4.36,3.15-7.88,3.15c-6.16,0-11.1-4.5-11.1-11.3
			c0-6.73,5.07-11.23,11.23-11.23C48.5,726.21,50.91,727.29,52.7,729.05z"/>
		<path class="st0" d="M67.48,734.09c-0.03-0.68-0.07-1.22-0.07-1.86v-0.54h4.47v16.64h-4.47v-0.54c0-0.71,0.03-1.29,0.07-1.97
			c-1.02,1.56-3.05,2.91-5.69,2.91c-4.8,0-7.99-3.92-7.99-8.73c0-4.8,3.18-8.73,7.99-8.73C64.47,731.28,66.5,732.57,67.48,734.09z
			 M58.45,740.01c0,2.74,2.06,4.8,4.53,4.8c2.64,0,4.53-2.06,4.53-4.8s-1.89-4.8-4.53-4.8C60.51,735.21,58.45,737.27,58.45,740.01z"
			/>
		<path class="st0" d="M92.76,737.13v11.2h-4.64v-9.88c0-2.17-1.49-3.21-3.18-3.21c-1.76,0-3.45,1.35-3.45,3.18v9.91h-4.6v-16.64
			h4.4v0.17v1.86c1.05-1.29,3.15-2.44,5.35-2.44C90.12,731.28,92.76,733.48,92.76,737.13z"/>
		<path class="st0" d="M96.45,731.28l-0.34-7.55h2.95l-0.47,7.55H96.45z"/>
		<path class="st0" d="M111.47,731.69v3.38h-3.42v13.26h-4.6v-13.26h-2.47v-3.38h2.47v-4.5h4.6v4.5H111.47z"/>
		<path class="st0" d="M39.84,760.99c0,0.61,0,1.05-0.03,1.66c0.95-1.39,2.98-2.61,5.51-2.61c4.84,0,7.99,3.89,7.99,8.73
			c0,4.8-3.18,8.73-7.99,8.73c-2.61,0-4.7-1.42-5.69-2.94c0.03,0.71,0.07,1.25,0.07,1.96v0.57h-4.47v-23.24h4.6V760.99z
			 M39.6,768.77c0,2.74,1.9,4.8,4.53,4.8c2.47,0,4.53-2.06,4.53-4.8c0-2.74-2.06-4.8-4.53-4.8C41.5,763.97,39.6,766.03,39.6,768.77z
			"/>
		<path class="st0" d="M72.59,768.54c0,0.47,0,1.05-0.1,1.69H60.38c0.24,2.1,1.99,3.65,4.5,3.65c1.76,0,3.08-0.75,4.13-1.83
			l2.4,2.57c-1.52,1.69-3.82,2.94-6.87,2.94c-5.31,0-8.8-3.99-8.8-8.8c0-4.84,3.49-8.8,8.63-8.8
			C68.94,759.98,72.59,763.43,72.59,768.54z M60.31,767.18h8.05c-0.07-2.23-1.79-3.72-3.93-3.72
			C61.97,763.46,60.41,765.29,60.31,767.18z"/>
		<path class="st0" d="M76.25,777.1v-23.24h4.6v23.24H76.25z"/>
		<path class="st0" d="M90.7,755.88c0,1.25-1.02,2.37-2.47,2.37c-1.45,0-2.47-1.12-2.47-2.37c0-1.22,1.02-2.33,2.47-2.33
			C89.68,753.55,90.7,754.67,90.7,755.88z M85.92,777.1v-16.65h4.6v16.65H85.92z"/>
		<path class="st0" d="M111.13,768.54c0,0.47,0,1.05-0.1,1.69H98.91c0.24,2.1,2,3.65,4.5,3.65c1.76,0,3.08-0.75,4.12-1.83l2.4,2.57
			c-1.52,1.69-3.83,2.94-6.87,2.94c-5.31,0-8.8-3.99-8.8-8.8c0-4.84,3.48-8.8,8.63-8.8C107.48,759.98,111.13,763.43,111.13,768.54z
			 M98.85,767.18h8.05c-0.07-2.23-1.79-3.72-3.92-3.72C100.51,763.46,98.95,765.29,98.85,767.18z"/>
		<path class="st0" d="M118.31,777.2l-5.95-16.75h5.01l3.52,11.37c0.14,0.34,0.2,0.61,0.27,1.01h0.06c0.07-0.4,0.14-0.67,0.27-1.01
			l3.55-11.37h5.01l-6.19,16.75H118.31z"/>
		<path class="st0" d="M148.08,768.54c0,0.47,0,1.05-0.1,1.69h-12.11c0.24,2.1,2,3.65,4.5,3.65c1.76,0,3.08-0.75,4.13-1.83l2.4,2.57
			c-1.52,1.69-3.83,2.94-6.87,2.94c-5.31,0-8.8-3.99-8.8-8.8c0-4.84,3.48-8.8,8.63-8.8C144.43,759.98,148.08,763.43,148.08,768.54z
			 M135.8,767.18h8.05c-0.07-2.23-1.79-3.72-3.92-3.72C137.46,763.46,135.9,765.29,135.8,767.18z"/>
		<path class="st0" d="M40.04,784.64c0,1.25-1.02,2.37-2.47,2.37c-1.45,0-2.47-1.12-2.47-2.37c0-1.22,1.01-2.34,2.47-2.34
			C39.03,782.31,40.04,783.42,40.04,784.64z M35.27,805.86v-16.64h4.6v16.64H35.27z"/>
		<path class="st0" d="M43.87,788.8l-0.34-7.55h2.94L46,788.8H43.87z"/>
		<path class="st0" d="M53.78,805.96l-5.96-16.75h5.01l3.52,11.37c0.14,0.34,0.2,0.61,0.27,1.02h0.06c0.07-0.41,0.14-0.68,0.27-1.02
			l3.55-11.37h5.01l-6.19,16.75H53.78z"/>
		<path class="st0" d="M83.56,797.3c0,0.48,0,1.05-0.1,1.69H71.34c0.24,2.1,2,3.65,4.5,3.65c1.76,0,3.08-0.74,4.13-1.83l2.4,2.57
			c-1.52,1.69-3.83,2.94-6.87,2.94c-5.32,0-8.8-3.99-8.8-8.8c0-4.84,3.49-8.79,8.63-8.79C79.9,788.74,83.56,792.19,83.56,797.3z
			 M71.27,795.95h8.05c-0.07-2.24-1.8-3.72-3.92-3.72C72.93,792.22,71.37,794.05,71.27,795.95z"/>
		<path class="st0" d="M46.2,819.19l-1.76,2.91c-0.74-0.68-1.83-1.11-3.21-1.11c-1.62,0-2.4,0.74-2.4,1.55
			c0,0.84,0.47,1.28,1.93,1.69l1.76,0.47c2.57,0.68,4.27,2.2,4.27,4.87c0,2.81-2.37,5.51-6.73,5.51c-2.68,0-4.81-0.91-6.16-2.2
			l1.86-2.95c1.12,0.98,2.44,1.55,3.96,1.59c1.56,0.03,2.57-0.71,2.57-1.76c0-1.01-0.61-1.49-1.86-1.83l-2.17-0.57
			c-2.54-0.64-3.89-2.43-3.89-4.53c0-3.08,2.71-5.35,6.56-5.35C43.22,817.5,45.12,818.28,46.2,819.19z"/>
		<path class="st0" d="M59.33,817.97v3.39h-3.42v13.26h-4.61v-13.26h-2.47v-3.39h2.47v-4.5h4.61v4.5H59.33z"/>
		<path class="st0" d="M67.15,813.4c0,1.25-1.02,2.37-2.47,2.37c-1.45,0-2.47-1.12-2.47-2.37c0-1.22,1.01-2.33,2.47-2.33
			C66.13,811.07,67.15,812.19,67.15,813.4z M62.37,834.62v-16.65h4.6v16.65H62.37z"/>
		<path class="st0" d="M72.02,834.62v-23.24h4.61v23.24H72.02z"/>
		<path class="st0" d="M81.66,834.62v-23.24h4.6v23.24H81.66z"/>
		<path class="st0" d="M47.11,848.86c-0.03-0.68-0.07-1.18-0.07-1.76v-0.37h4.47v14.08c0,5.62-3.25,9.07-9.03,9.07
			c-3.99,0-6.46-1.96-7.99-4.2l2.91-2.03c1.08,1.59,2.64,2.71,4.8,2.71c2.78,0,4.67-1.66,4.67-4.73v-0.68v-0.68
			c-0.98,1.25-2.98,2.27-5.14,2.27c-4.54,0-7.78-3.42-7.78-8.12c0-4.64,3.25-8.09,7.78-8.09C44.2,846.33,46.2,847.51,47.11,848.86z
			 M38.56,854.48c0,2.61,1.93,4.54,4.33,4.54c2.43,0,4.29-1.93,4.29-4.54c0-2.57-1.86-4.53-4.29-4.53
			C40.48,849.95,38.56,851.91,38.56,854.48z"/>
		<path class="st0" d="M72.83,855.05c0,4.67-3.42,8.8-8.83,8.8c-5.38,0-8.8-4.13-8.8-8.8c0-4.8,3.42-8.79,8.8-8.79
			C69.41,846.26,72.83,850.25,72.83,855.05z M59.7,855.05c0,2.74,1.83,4.8,4.29,4.8c2.5,0,4.33-2.06,4.33-4.8
			c0-2.74-1.83-4.8-4.33-4.8C61.53,850.25,59.7,852.31,59.7,855.05z"/>
		<path class="st0" d="M85.35,846.73v3.38h-3.42v13.26h-4.6v-13.26h-2.47v-3.38h2.47v-4.5h4.6v4.5H85.35z"/>
		<path class="st0" d="M110.89,849.14c-0.03-0.68-0.07-1.22-0.07-1.86v-0.54h4.46v16.64h-4.46v-0.54c0-0.71,0.03-1.29,0.07-1.96
			c-1.01,1.56-3.05,2.91-5.69,2.91c-4.8,0-7.98-3.93-7.98-8.73c0-4.8,3.18-8.73,7.98-8.73
			C107.88,846.33,109.91,847.61,110.89,849.14z M101.86,855.05c0,2.74,2.06,4.8,4.54,4.8c2.64,0,4.53-2.06,4.53-4.8
			c0-2.74-1.89-4.8-4.53-4.8C103.92,850.25,101.86,852.31,101.86,855.05z"/>
		<path class="st0" d="M39.84,877.32c1.05-1.18,3.01-2.23,5.14-2.23c3.49,0,6.13,2.2,6.13,5.85v11.2h-4.64v-9.88
			c0-2.17-1.49-3.21-3.18-3.21c-1.76,0-3.45,1.35-3.45,3.18v9.92h-4.6v-23.25h4.6v6.73L39.84,877.32L39.84,877.32z"/>
		<path class="st0" d="M71.41,883.58c0,0.47,0,1.05-0.1,1.69H59.19c0.24,2.1,2,3.66,4.5,3.66c1.76,0,3.08-0.74,4.13-1.83l2.4,2.57
			c-1.52,1.69-3.82,2.94-6.87,2.94c-5.31,0-8.8-3.99-8.8-8.8c0-4.84,3.48-8.8,8.63-8.8C67.75,875.02,71.41,878.47,71.41,883.58z
			 M59.13,882.23h8.05c-0.07-2.24-1.79-3.72-3.92-3.72C60.78,878.5,59.23,880.33,59.13,882.23z"/>
		<path class="st0" d="M87.55,877.9c-0.03-0.68-0.07-1.22-0.07-1.86v-0.54h4.47v16.65h-4.47v-0.54c0-0.71,0.03-1.28,0.07-1.96
			c-1.02,1.55-3.05,2.91-5.69,2.91c-4.81,0-7.98-3.92-7.98-8.73c0-4.8,3.18-8.73,7.98-8.73C84.54,875.09,86.57,876.37,87.55,877.9z
			 M78.51,883.82c0,2.74,2.06,4.8,4.54,4.8c2.64,0,4.53-2.06,4.53-4.8c0-2.74-1.89-4.8-4.53-4.8
			C80.58,879.01,78.51,881.08,78.51,883.82z"/>
		<path class="st0" d="M109.27,892.14v-0.54c0-0.71,0.03-1.28,0.07-1.96c-0.95,1.49-3.04,2.91-5.68,2.91
			c-4.81,0-7.99-3.92-7.99-8.73c0-4.8,3.18-8.73,7.99-8.73c2.54,0,4.6,1.25,5.51,2.6c-0.03-0.61-0.03-1.05-0.03-1.66v-7.14h4.6
			v23.25L109.27,892.14L109.27,892.14z M100.3,883.82c0,2.74,2.06,4.8,4.53,4.8c2.64,0,4.54-2.06,4.54-4.8c0-2.74-1.9-4.8-4.54-4.8
			C102.37,879.01,100.3,881.08,100.3,883.82z"/>
		<path class="st0" d="M131.13,877.9c-0.03-0.68-0.07-1.22-0.07-1.86v-0.54h4.47v16.65h-4.47v-0.54c0-0.71,0.04-1.28,0.07-1.96
			c-1.02,1.55-3.05,2.91-5.69,2.91c-4.8,0-7.98-3.92-7.98-8.73c0-4.8,3.18-8.73,7.98-8.73C128.12,875.09,130.15,876.37,131.13,877.9
			z M122.1,883.82c0,2.74,2.06,4.8,4.54,4.8c2.64,0,4.53-2.06,4.53-4.8c0-2.74-1.89-4.8-4.53-4.8
			C124.16,879.01,122.1,881.08,122.1,883.82z"/>
		<path class="st0" d="M154.3,877.69l-2.3,2.94c-0.91-1.05-2-1.69-3.52-1.69c-2.64,0-4.54,2.03-4.54,4.8c0,2.78,1.9,4.91,4.57,4.91
			c1.46,0,2.54-0.61,3.45-1.59l2.44,2.77c-1.39,1.56-3.42,2.71-6.16,2.71c-5.48,0-9-3.99-9-8.73c0-4.87,3.52-8.73,8.86-8.73
			C150.89,875.09,153.02,876.31,154.3,877.69z"/>
		<path class="st0" d="M161.89,877.32c1.05-1.18,3.01-2.23,5.14-2.23c3.49,0,6.12,2.2,6.12,5.85v11.2h-4.63v-9.88
			c0-2.17-1.49-3.21-3.18-3.21c-1.76,0-3.45,1.35-3.45,3.18v9.92h-4.6v-23.25h4.6v6.73L161.89,877.32L161.89,877.32z"/>
		<path class="st0" d="M193.46,883.58c0,0.47,0,1.05-0.1,1.69h-12.11c0.24,2.1,2,3.66,4.5,3.66c1.76,0,3.08-0.74,4.13-1.83l2.4,2.57
			c-1.52,1.69-3.82,2.94-6.87,2.94c-5.31,0-8.8-3.99-8.8-8.8c0-4.84,3.49-8.8,8.63-8.8C189.8,875.02,193.46,878.47,193.46,883.58z
			 M181.17,882.23h8.05c-0.07-2.24-1.79-3.72-3.93-3.72C182.83,878.5,181.27,880.33,181.17,882.23z"/>
	</g>
	<g>
		<g>
			<path class="st0" d="M83.88,56.09c0,9.27-6.77,15.22-15.17,15.22c-8.41,0-15.22-5.95-15.22-15.22c0-9.22,6.81-15.22,15.22-15.22
				C77.11,40.87,83.88,46.87,83.88,56.09z M60.07,56.09c0,6,3.77,9.73,8.64,9.73c4.81,0,8.58-3.73,8.58-9.73
				c0-6-3.77-9.77-8.58-9.77C63.85,46.33,60.07,50.1,60.07,56.09z"/>
			<path class="st0" d="M94.63,50.78c1.41-1.59,4.04-3,6.91-3c4.68,0,8.23,2.95,8.23,7.86v15.04h-6.23V57.41
				c0-2.91-2-4.32-4.27-4.32c-2.36,0-4.64,1.82-4.64,4.27v13.31h-6.18V39.46h6.18v9.04L94.63,50.78L94.63,50.78z"/>
			<path class="st0" d="M153.2,55.64v15.04h-6.18V57.41c0-2.91-2-4.32-4.27-4.32c-2.37,0-4.59,1.82-4.59,4.27v13.31h-6.22V57.41
				c0-2.91-2-4.32-4.27-4.32c-2.36,0-4.59,1.82-4.59,4.27v13.31h-6.18V48.32h5.91v0.36v2.36c1.36-1.73,4.18-3.27,7.18-3.27
				c3.27,0,5.86,1.5,7.18,4c1.41-2.14,4.32-4,7.9-4C149.7,47.78,153.2,50.73,153.2,55.64z"/>
		</g>
		<g>
			<path class="st0" d="M53.69,72.4l-2.77,4.36c-1.41-1.23-3.09-2.14-5.41-2.14c-2.36,0-4.04,1.41-4.04,3.23
				c0,1.68,0.96,2.68,2.77,3.32c1.27,0.46,2.13,0.64,3.82,1.18c4.23,1.36,6.4,4.27,6.4,8.22c0,5.18-4.54,9.18-10.77,9.18
				c-4.59,0-7.86-1.95-9.81-4.18l3.18-4.18c1.82,1.82,3.59,3.14,6.36,3.14c2.64,0,4.32-1.64,4.32-3.59c0-1.86-1-2.82-3.46-3.64
				c-1.54-0.5-2.91-0.82-4.68-1.64c-3.09-1.36-4.72-4.09-4.72-7.49c0-4.95,4.31-8.68,10.45-8.68C48.74,69.49,51.65,70.68,53.69,72.4
				z"/>
			<path class="st0" d="M76.41,80.22c-0.04-0.95-0.09-1.68-0.09-2.63v-0.73h6v30.99h-6.18v-9.31c0-0.77,0-1.36,0.04-2.14
				c-1.27,1.73-3.99,3.36-7.4,3.36c-6.45,0-10.72-5.27-10.72-11.72c0-6.45,4.27-11.72,10.72-11.72
				C72.32,76.31,75.14,78.17,76.41,80.22z M64.28,88.03c0,3.68,2.77,6.45,6.09,6.45c3.55,0,6.09-2.82,6.09-6.45
				c0-3.72-2.54-6.45-6.09-6.45C67.05,81.58,64.28,84.31,64.28,88.03z"/>
			<path class="st0" d="M109.44,90.35c0,6.27-4.91,9.54-10.5,9.54c-5.59,0-10.5-3.27-10.5-9.54v-13.5h6.18v13.31c0,3,2,4.5,4.32,4.5
				c2.32,0,4.32-1.5,4.32-4.5V76.85h6.18L109.44,90.35L109.44,90.35z"/>
			<path class="st0" d="M131.94,80.08c-0.05-0.91-0.09-1.63-0.09-2.5v-0.73h6v22.35h-6v-0.73c0-0.96,0.05-1.73,0.09-2.64
				c-1.36,2.09-4.09,3.91-7.63,3.91c-6.45,0-10.72-5.27-10.72-11.72c0-6.45,4.27-11.72,10.72-11.72
				C127.89,76.31,130.62,78.04,131.94,80.08z M119.8,88.03c0,3.68,2.77,6.45,6.09,6.45c3.54,0,6.08-2.77,6.08-6.45
				s-2.54-6.45-6.08-6.45C122.57,81.58,119.8,84.35,119.8,88.03z"/>
			<path class="st0" d="M157.77,76.45v5.5c-0.64-0.14-1.32-0.27-2.09-0.27c-2.68,0-5.36,1.41-5.36,4.59v12.95h-6.18V76.85h5.95v0.32
				v2.5c1.09-1.82,3.45-3.36,6.13-3.36C156.77,76.31,157.31,76.36,157.77,76.45z"/>
			<path class="st0" d="M181.44,87.71c0,0.64,0,1.41-0.14,2.27h-16.26c0.32,2.82,2.68,4.91,6.04,4.91c2.36,0,4.13-1,5.54-2.45
				l3.23,3.45c-2.04,2.27-5.13,3.95-9.22,3.95c-7.13,0-11.81-5.36-11.81-11.81c0-6.5,4.68-11.81,11.59-11.81
				C176.53,76.22,181.44,80.85,181.44,87.71z M164.94,85.89h10.82c-0.09-3-2.41-5-5.27-5C167.17,80.9,165.08,83.35,164.94,85.89z"/>
		</g>
	</g>
</g>
<g id="Layer_3">
	<g>
		<polygon class="st1" points="797.1,315.84 770.67,352.36 830.1,347.66 770.82,369.61 941.17,356.89 945,339.66 913.19,301.47 		
			"/>
		<polygon class="st2" points="797.1,315.84 770.67,352.36 945,339.66 927.13,300.08 		"/>
		<polygon class="st2" points="810.84,812.05 178.04,812.05 647.93,409.01 293.05,429.25 157.6,840.48 817.42,840.06 866.03,800.34 
			859.62,768.01 		"/>
		<polygon class="st1" points="610.15,488.4 178.04,812.05 810.84,812.05 853.15,742.97 769.11,417.91 715.24,455.58 		"/>
		<g>
			<polygon class="st1" points="707.91,159.68 707.91,126.45 739.48,99.72 731.46,91.39 236.05,151.46 675.46,188.16 			"/>
			<polygon class="st0" points="663.13,247.96 234.34,260.54 647.93,409.01 631.76,471.72 715.24,455.58 754.13,412.67 
				700.55,447.79 694,396.16 764.52,311.67 			"/>
			<polygon class="st2" points="861.18,359.51 827.9,363.02 829.68,357.26 847.31,353.91 828.86,348.06 694,396.16 715.3,438.11 
				790.53,388.67 839.98,388.06 870.1,362.01 			"/>
			<path class="st2" d="M709.35,167.8l-38.89,72.58l94.07,71.28l-23.04-71.19l-38.93-24.78l9.16-16.01c0,0,42.69,9.65,50.23-36.45
				L709.35,167.8z"/>
			<path class="st2" d="M757.63,122.89c-3.13-12.29-12.15-18.89-12.15-18.89l-29.41,18.89H757.63z"/>
			<rect x="757.65" y="146.51" class="st2" width="15.68" height="13.17"/>
			<rect x="713.09" y="129.22" class="st2" width="19.26" height="30.47"/>
			<polygon class="st2" points="753.01,129.22 736.97,129.22 736.97,159.68 753.02,159.68 			"/>
			<rect x="757.65" y="129.22" class="st2" width="15.68" height="12.78"/>
		</g>
		<path class="st1" d="M900.11,196.47c0,3.11-2.52,5.63-5.64,5.63c-3.11,0-5.63-2.52-5.63-5.63c0-3.11,2.52-5.63,5.63-5.63
			C897.58,190.84,900.11,193.36,900.11,196.47z"/>
		<path class="st1" d="M906.25,225.37c0,2.53-2.06,4.58-4.58,4.58c-2.53,0-4.58-2.05-4.58-4.58c0-2.53,2.05-4.58,4.58-4.58
			C904.19,220.79,906.25,222.84,906.25,225.37z"/>
		<path class="st1" d="M887.85,231.73c0,3.11-2.52,5.64-5.63,5.64c-3.12,0-5.63-2.52-5.63-5.64c0-3.11,2.52-5.64,5.63-5.64
			C885.34,226.09,887.85,228.62,887.85,231.73z"/>
		<g>
			<path class="st1" d="M873.1,160.48c0,2.15-1.75,3.9-3.91,3.9c-2.15,0-3.9-1.75-3.9-3.9c0-2.16,1.74-3.9,3.9-3.9
				C871.35,156.58,873.1,158.33,873.1,160.48z"/>
			<path class="st1" d="M885.65,176.37c0,2.16-1.74,3.91-3.9,3.91c-2.15,0-3.9-1.75-3.9-3.91c0-2.15,1.74-3.9,3.9-3.9
				C883.91,172.47,885.65,174.21,885.65,176.37z"/>
			<path class="st1" d="M895.23,157.07c0,2.16-1.75,3.9-3.9,3.9c-2.15,0-3.9-1.74-3.9-3.9c0-2.16,1.75-3.9,3.9-3.9
				C893.48,153.17,895.23,154.92,895.23,157.07z"/>
			<path class="st1" d="M862.81,179.78c0,2.15-1.74,3.9-3.9,3.9c-2.16,0-3.9-1.75-3.9-3.9c0-2.16,1.75-3.9,3.9-3.9
				C861.07,175.88,862.81,177.62,862.81,179.78z"/>
			<path class="st1" d="M868.85,200.02c0,2.15-1.74,3.9-3.9,3.9c-2.16,0-3.91-1.75-3.91-3.9c0-2.16,1.75-3.9,3.91-3.9
				C867.11,196.12,868.85,197.86,868.85,200.02z"/>
			<path class="st1" d="M908.36,149.13c0,2.16-1.75,3.9-3.91,3.9c-2.15,0-3.9-1.75-3.9-3.9c0-2.15,1.75-3.9,3.9-3.9
				C906.61,145.23,908.36,146.98,908.36,149.13z"/>
			<path class="st1" d="M914.03,176.37c0,2.16-1.75,3.91-3.91,3.91c-2.15,0-3.9-1.75-3.9-3.91c0-2.15,1.75-3.9,3.9-3.9
				C912.28,172.47,914.03,174.21,914.03,176.37z"/>
			<path class="st1" d="M889.55,118.49c0,2.15-1.75,3.9-3.9,3.9c-2.15,0-3.9-1.75-3.9-3.9c0-2.15,1.75-3.9,3.9-3.9
				C887.81,114.58,889.55,116.33,889.55,118.49z"/>
		</g>
		<g>
			<path class="st1" d="M815.15,218.23c0,2.16-1.75,3.91-3.9,3.91c-2.16,0-3.91-1.75-3.91-3.91s1.75-3.91,3.91-3.91
				C813.41,214.32,815.15,216.07,815.15,218.23z"/>
			<path class="st1" d="M827.73,234.14c0,2.16-1.75,3.91-3.91,3.91c-2.16,0-3.91-1.75-3.91-3.91c0-2.16,1.75-3.9,3.91-3.9
				C825.98,230.23,827.73,231.98,827.73,234.14z"/>
			<path class="st1" d="M837.31,214.82c0,2.16-1.75,3.91-3.91,3.91c-2.16,0-3.9-1.75-3.9-3.91c0-2.16,1.75-3.91,3.9-3.91
				C835.57,210.91,837.31,212.66,837.31,214.82z"/>
			<path class="st1" d="M804.86,237.55c0,2.16-1.75,3.9-3.91,3.9s-3.9-1.75-3.9-3.9c0-2.16,1.75-3.91,3.9-3.91
				C803.11,233.64,804.86,235.39,804.86,237.55z"/>
			<path class="st1" d="M810.91,257.81c0,2.16-1.75,3.9-3.91,3.9c-2.16,0-3.91-1.75-3.91-3.9c0-2.16,1.75-3.91,3.91-3.91
				C809.16,253.9,810.91,255.65,810.91,257.81z"/>
			<path class="st1" d="M850.45,206.87c0,2.16-1.75,3.91-3.91,3.91c-2.16,0-3.9-1.75-3.9-3.91c0-2.16,1.75-3.91,3.9-3.91
				C848.7,202.96,850.45,204.71,850.45,206.87z"/>
			<path class="st1" d="M856.13,234.14c0,2.16-1.75,3.91-3.91,3.91c-2.16,0-3.91-1.75-3.91-3.91c0-2.16,1.75-3.9,3.91-3.9
				C854.39,230.23,856.13,231.98,856.13,234.14z"/>
			<path class="st1" d="M831.63,176.19c0,2.16-1.75,3.91-3.91,3.91c-2.16,0-3.91-1.75-3.91-3.91s1.75-3.91,3.91-3.91
				C829.88,172.28,831.63,174.03,831.63,176.19z"/>
		</g>
		<polygon points="860.15,324.5 881.31,315.49 892.21,330.17 		"/>
		<polygon points="796.8,328.13 817.96,319.12 825.11,332.68 		"/>
		<polygon class="st0" points="913.14,264.19 892.21,253.72 871.29,264.19 871.29,264.25 871.29,264.25 871.29,319.19 
			871.31,319.19 871.29,319.71 892.21,330.17 913.14,319.71 913.14,264.25 913.13,264.25 		"/>
		<polygon class="st2" points="913.14,264.19 892.21,274.65 871.29,264.19 892.21,253.72 		"/>
		<path d="M894.43,263.97c0,1.03-1.51,1.86-3.38,1.86c-1.87,0-3.38-0.83-3.38-1.86c0-1.03,1.51-1.86,3.38-1.86
			C892.92,262.1,894.43,262.94,894.43,263.97z"/>
		<polygon class="st0" points="842.89,276.58 825.11,267.69 807.32,276.58 807.32,276.64 807.32,276.64 807.32,323.34 
			807.34,323.34 807.32,323.78 825.11,332.68 842.89,323.78 842.88,323.34 842.89,323.34 842.89,276.64 842.89,276.64 		"/>
		<polygon class="st2" points="842.89,276.58 825.11,285.48 807.32,276.58 825.11,267.69 		"/>
		<path class="st1" d="M896.58,255.33c0,3.11-2.52,5.64-5.63,5.64c-3.11,0-5.63-2.53-5.63-5.64c0-3.12,2.52-5.64,5.63-5.64
			C894.06,249.69,896.58,252.21,896.58,255.33z"/>
		<path d="M826.52,276.66c0,1.03-1.51,1.86-3.38,1.86c-1.87,0-3.38-0.83-3.38-1.86s1.51-1.86,3.38-1.86
			C825.01,274.79,826.52,275.63,826.52,276.66z"/>
		<g>
			<path class="st1" d="M827.57,250.88c0,1.24-1.01,2.25-2.25,2.25c-1.24,0-2.25-1.01-2.25-2.25c0-1.24,1.01-2.25,2.25-2.25
				C826.57,248.63,827.57,249.64,827.57,250.88z"/>
			<circle class="st1" cx="832.57" cy="260.06" r="2.25"/>
			<circle class="st1" cx="838.1" cy="248.92" r="2.25"/>
			<path class="st1" d="M821.64,262.02c0,1.24-1.01,2.25-2.25,2.25s-2.25-1.01-2.25-2.25c0-1.24,1.01-2.25,2.25-2.25
				C820.63,259.77,821.64,260.78,821.64,262.02z"/>
			<circle class="st1" cx="822.87" cy="273.71" r="2.25"/>
			<path class="st1" d="M847.93,244.33c0,1.24-1.01,2.25-2.25,2.25c-1.24,0-2.25-1.01-2.25-2.25s1.01-2.25,2.25-2.25
				C846.92,242.08,847.93,243.09,847.93,244.33z"/>
			<path class="st1" d="M851.21,260.06c0,1.24-1.01,2.25-2.25,2.25c-1.24,0-2.26-1.01-2.26-2.25c0-1.24,1.01-2.25,2.26-2.25
				C850.2,257.8,851.21,258.81,851.21,260.06z"/>
			<path class="st1" d="M837.08,226.64c0,1.24-1.01,2.25-2.25,2.25c-1.24,0-2.25-1.01-2.25-2.25s1.01-2.25,2.25-2.25
				C836.07,224.38,837.08,225.39,837.08,226.64z"/>
		</g>
	</g>
</g>
</svg>
